# xmcd
#
# Track frame offsets:
#	150
#	19441
#	41989
#	71577
#	99576
#	108950
#	126174
#	147840
#	185202
#
# Disc length: 2900 seconds
#
# Revision: 0
# Processed by: cddbd v1.5.2PL0 Copyright (c) Steve Scherf et al.
# Submitted via: VUPlayer 2.49
#
DISCID=880b5209
DTITLE=Jesse Younan - Swimming In Stone
DYEAR=2004
DGENRE=Blues
TTITLE0=Forever
TTITLE1=Chronic
TTITLE2=A Father's Song
TTITLE3=Bea
TTITLE4=Annie's Song
TTITLE5=Dirty Death
TTITLE6=Queeny
TTITLE7=Cest La Vie
TTITLE8=Data Track
EXTD=
EXTT0=
EXTT1=
EXTT2=
EXTT3=
EXTT4=
EXTT5=
EXTT6=
EXTT7=
EXTT8=
PLAYORDER=
